<svg version="1.1" xmlns="http://www.w3.org/2000/svg" xmlns:xlink="http://www.w3.org/1999/xlink" x="0px" y="0px" width="100%" height="100%"
	 viewBox="0 0 24 24" style="enable-background:new 0 0 24 24;" xml:space="preserve">
<path style="fill-rule:evenodd;clip-rule:evenodd;" d="M14.8,21.3C13.6,21.8,12.3,22,11,22C4.9,22,0,17.1,0,11C0,4.9,4.9,0,11,0c6.1,0,11,4.9,11,11
	c0,0.5,0,0.9-0.1,1.4c0.3,0.3,0.4,0.7,0.4,1.1v0l0.1,0c0.9,0,1.5,0.7,1.5,1.6l0,5.8c0,1.9-1.2,3.1-3.2,3.1h-2.6
	c-2.1,0-2.8-1.4-3.1-2.1C15.1,21.9,14.8,21.3,14.8,21.3z M20.8,23c1.4,0,2.2-0.8,2.2-2.1l0-5.8c0-0.4-0.3-0.6-0.5-0.6
	c-0.3,0-0.5,0.2-0.5,0.5v2.6c0,0.2-0.1,0.3-0.3,0.3c-0.1,0-0.3-0.1-0.3-0.3v-4.1c0-0.4-0.3-0.6-0.6-0.6c-0.3,0-0.6,0.2-0.6,0.6v3.9
	c0,0.2-0.1,0.2-0.3,0.2s-0.3-0.1-0.3-0.3v-4.6c0-0.4-0.3-0.6-0.6-0.6c-0.3,0-0.6,0.2-0.6,0.6l0,4.6c0,0.2-0.1,0.3-0.3,0.3
	c-0.1,0-0.3-0.1-0.3-0.3v-3.9c0-0.4-0.3-0.6-0.6-0.6c-0.3,0-0.6,0.2-0.6,0.6v4.8c0,0.2-0.1,0.2-0.2,0.2c-0.1,0-0.2,0-0.2-0.1
	L15.5,17c-0.2-0.3-0.4-0.4-0.7-0.4c-0.4,0-0.8,0.3-0.8,0.7c0,0.1,0,0.2,0.1,0.4c0.1,0.3,1.6,3.1,1.9,3.8c0.4,0.8,0.8,1.5,2.2,1.5
	C18.2,23,20.8,23,20.8,23z M11,6.2c-2.6,0-4.8,2.1-4.8,4.8c0,2.6,2.1,4.8,4.8,4.8c2.6,0,4.8-2.1,4.8-4.8C15.8,8.4,13.6,6.2,11,6.2z
	 M9.9,11c0,0.6,0.5,1.1,1.1,1.1c0.6,0,1.1-0.5,1.1-1.1c0-0.6-0.5-1.1-1.1-1.1C10.4,9.9,9.9,10.4,9.9,11z"/>
</svg>
