<svg version="1.1" xmlns="http://www.w3.org/2000/svg" xmlns:xlink="http://www.w3.org/1999/xlink" x="0px" y="0px" width="100%" height="100%"
	 viewBox="0 0 612 748" style="enable-background:new 0 0 612 748;" xml:space="preserve">
<path d="M107.9,221.6c-25.2,0-45.8-20.4-45.8-45.8S82.6,130,107.9,130s45.8,20.4,45.8,45.8S133.2,221.6,107.9,221.6 M592.9,361.2
	L318.6,86.9c-11-11-26.2-17.7-43-17.7H62.2c-33.8,0-61,27.1-61,61v213.4c0,16.7,6.7,32,17.9,43l274.1,274.3
	c11.2,11,26.5,17.9,43.3,17.9s32-7.1,43-17.9l213.4-213.4c11.2-11,17.9-26.2,17.9-43C610.8,387.4,603.8,372.2,592.9,361.2z
	 M119.3,343.6c6.1-1.9,17.6-6.2,28.4-16.7c12-11.5,16.7-24.1,18.5-30.2c1.8,6,6.3,18.2,17.7,29.4c11.2,11.2,23.3,15.8,29.3,17.6
	c-6.1,1.8-17.7,6.2-28.7,16.9c-11.7,11.4-16.4,23.9-18.3,29.9c-1.9-6.1-6.6-18.4-18-29.6C137.1,350,125.3,345.6,119.3,343.6z
	 M51.6,657.5L9.6,615.5l285.1-285.1l42.1,42.1L51.6,657.5z M264,425.5L241.6,403l51.5-51.5l22.5,22.5L264,425.5z M252.7,504.5
	c3.9-1.2,11.5-4.1,18.5-10.9c7.8-7.5,10.9-15.8,12.1-19.7c1.2,3.9,4.2,11.8,11.5,19.2c7.3,7.3,15.2,10.3,19.1,11.5
	c-3.9,1.2-11.6,4.1-18.8,11c-7.6,7.4-10.8,15.5-12,19.5c-1.2-3.9-4.3-12.1-11.8-19.4C264.3,508.7,256.6,505.8,252.7,504.5z M335,527
	c4.9-1.6,14.1-5,22.8-13.4c9.6-9.2,13.4-19.5,14.9-24.4c1.4,4.8,5.1,14.7,14.2,23.7c9.1,9,18.8,12.7,23.7,14.1
	c-4.9,1.4-14.2,5-23.1,13.6c-9.4,9.2-13.3,19.2-14.7,24.1c-1.6-4.9-5.3-14.8-14.6-23.9C349.4,532.1,339.8,528.6,335,527z
	 M322.9,429.9c5.6-1.7,16.1-5.7,26.2-15.4c11-10.5,15.4-22.2,17.1-27.9c1.7,5.5,5.9,16.7,16.3,27.1c10.3,10.3,21.5,14.5,27,16.1
	c-5.6,1.7-16.4,5.7-26.4,15.5c-10.8,10.5-15.2,22-16.9,27.6c-1.7-5.6-6.1-17-16.6-27.4C339.3,435.7,328.5,431.6,322.9,429.9z"/>
</svg>
