<svg xmlns="http://www.w3.org/2000/svg" width="100%" height="100%" viewBox="0 0 24 24">
  
  <g>
    <polygon points="22.243 20.828 19.414 18 22.243 15.172 20.828 13.757 18 16.586 15.172 13.757 13.757 15.172 16.586 18 13.757 20.828 15.172 22.243 18 19.414 20.828 22.243 22.243 20.828"/>
    <g>
      <ellipse cx="10" cy="7" rx="8" ry="4" />
      <path d="M18,12V9c0,1.034-.79,1.972-2.076,2.682l.661.661.967.967A2.291,2.291,0,0,0,18,12Z" />
      <path d="M10,16a15.827,15.827,0,0,0,1.669-.088l-.74-.74,1.414-1.414,1.167-1.167A14.841,14.841,0,0,1,10,13c-4.42,0-8-1.79-8-4v3C2,14.21,5.58,16,10,16Z" />
      <path d="M10.929,20.828l1.414-1.414L13.757,18l-.378-.378A14.925,14.925,0,0,1,10,18c-4.42,0-8-1.79-8-4v3c0,2.21,3.58,4,8,4,.361,0,.713-.016,1.061-.039Z" />
    </g>
    <path d="M0,0H24V24H0Z" fill="none"/>
  </g>
</svg>
