<svg xmlns="http://www.w3.org/2000/svg" width="100%" height="100%" viewBox="0 0 24 24">
  
  <g>
    <g>
      <path d="M2.562,22l5.1-5.028a1.45,1.45,0,0,0,1.4-.321A1.418,1.418,0,0,0,9.5,15.622,1.279,1.279,0,0,0,8.117,14.4,1.309,1.309,0,0,0,6.963,16.19L2,21.156c1.04-3.3,2.078-6.591,2.881-9.975.215,0,.419,0,.623,0a12.147,12.147,0,0,0,3.454-.453,5.933,5.933,0,0,0,2.4-1.386,1.291,1.291,0,0,1,.129-.1L14.7,12.433a.755.755,0,0,1-.1.142,6.145,6.145,0,0,0-1.589,3.132,13.374,13.374,0,0,0-.258,2.762c0,.164,0,.327,0,.525C9.324,19.78,6,20.912,2.562,22Z"/>
      <path d="M12.437,7.54c.045-.05.12-.144.2-.228,1.66-1.649,3.33-3.289,4.974-4.953a1.035,1.035,0,0,1,1.554-.014c.847.856,1.7,1.708,2.566,2.543a1.012,1.012,0,0,1,.1,1.239,3.027,3.027,0,0,1-.27.308q-2.489,2.475-4.981,4.946C16.534,11.429,13.777,8.87,12.437,7.54Z"/>
    </g>
    <path d="M0,0H24V24H0Z" fill="none"/>
  </g>
</svg>
