<svg height="100%" width="100%" viewBox="0 0 24 24" xmlns="http://www.w3.org/2000/svg">
  
  <g>
    <path d="M0,0H24V24H0Z" fill="none"/>
    <path d="M9.5,17A7.487,7.487,0,0,1,22,11.426V8a2.006,2.006,0,0,0-2-2H12L10,4H4A2,2,0,0,0,2.01,6L2,18a2.006,2.006,0,0,0,2,2h6.13A7.451,7.451,0,0,1,9.5,17Z"/>
    <path d="M17,23a6,6,0,1,1,6-6A6.007,6.007,0,0,1,17,23Zm0-10a4,4,0,1,0,4,4A4,4,0,0,0,17,13Z"/>
    <polygon points="18.335 19.463 16.25 17.303 16.25 14 17.75 14 17.75 16.697 19.415 18.422 18.335 19.463"/>
  </g>
</svg>
