<svg xmlns="http://www.w3.org/2000/svg" width="100%" height="100%" viewBox="0 0 24 24">
  
  <g>
    <path d="M0,0H24V24H0Z" fill="none"/>
    <path d="M22.77,19.32l-1.07-.83a3.883,3.883,0,0,0,.04-.49,2.631,2.631,0,0,0-.04-.49l1.06-.83a.26.26,0,0,0,.06-.32l-1-1.73a.254.254,0,0,0-.31-.11l-1.24.5a3.421,3.421,0,0,0-.85-.49l-.19-1.32a.239.239,0,0,0-.24-.21h-2a.257.257,0,0,0-.25.21l-.19,1.32a3.992,3.992,0,0,0-.85.49l-1.24-.5a.262.262,0,0,0-.31.11l-1,1.73a.248.248,0,0,0,.06.32l1.06.83a4.013,4.013,0,0,0,0,.98l-1.06.83a.26.26,0,0,0-.06.32l1,1.73a.254.254,0,0,0,.31.11l1.24-.5a3.421,3.421,0,0,0,.85.49l.19,1.32a.249.249,0,0,0,.25.21h2a.257.257,0,0,0,.25-.21l.19-1.32a3.694,3.694,0,0,0,.84-.49l1.25.5a.262.262,0,0,0,.31-.11l1-1.73A.26.26,0,0,0,22.77,19.32Zm-4.78.18a1.5,1.5,0,1,1,1.5-1.5A1.5,1.5,0,0,1,17.99,19.5Z" />
    <g>
      <ellipse cx="12" cy="7" rx="8" ry="4" />
      <path d="M18.922,11h.068a2.222,2.222,0,0,1,1.01.245V9A2.7,2.7,0,0,1,18.922,11Z" />
      <path d="M11.394,20.6A2.249,2.249,0,0,1,11.7,18l-.007-.009C7.419,17.912,4,16.159,4,14v3c0,2.146,3.379,3.891,7.621,3.99Z"/>
      <path d="M11.187,15.979a2.411,2.411,0,0,1,.232-.62l1-1.73.021-.037.023-.036a2.255,2.255,0,0,1,.575-.594C12.7,12.985,12.352,13,12,13c-4.42,0-8-1.79-8-4v3C4,14.073,7.149,15.776,11.187,15.979Z"/>
    </g>
  </g>
</svg>
