<?xml version="1.0" encoding="UTF-8"?>
<!DOCTYPE svg PUBLIC "-//W3C//DTD SVG 1.1//EN" "http://www.w3.org/Graphics/SVG/1.1/DTD/svg11.dtd">
<svg xmlns="http://www.w3.org/2000/svg" xml:space="preserve" width="100%" height="100%" version="1.1" style="shape-rendering:geometricPrecision; text-rendering:geometricPrecision; image-rendering:optimizeQuality; fill-rule:evenodd; clip-rule:evenodd"
viewBox="0 0 15000 15000"
 xmlns:xlink="http://www.w3.org/1999/xlink"
 enable-background="new 0 0 100 100">
 <defs>
  <style type="text/css">
   <![CDATA[
    .filT {fill-opacity:0.75}
   ]]>
  </style>
 </defs>
 <g id="Layer_x0020_1">
  <path d="M924 5227c41,-24 87,-36 133,-36 46,0 92,12 133,36l3170 2303c82,48 133,136 133,231 0,95 -51,183 -133,230l-3170 2303c-82,48 -184,48 -266,0 -82,-47 -133,-135 -133,-230l0 -4607c0,-95 51,-182 133,-230z"/>
  <polygon class="filT" points="3385,2337 12454,2337 12454,4543 3385,4543 "/>
  <rect x="5185" y="6658" width="9069" height="2205"/>
  <polygon class="filT" points="3385,10979 12454,10979 12454,13184 3385,13184 "/>
 </g>
</svg>
