<svg xmlns="http://www.w3.org/2000/svg" width="100%" height="100%" viewBox="0 0 24 24">
  
  <g>
    <path d="M0,0H24V24H0Z" fill="none"/>
    <path d="M16.217,14.668l-.53-.9,3.087-3.852a2.586,2.586,0,0,0,1.79.074A2.457,2.457,0,0,0,22,9L18.5,5.5,15,2a2.457,2.457,0,0,0-.988,1.436,2.586,2.586,0,0,0,.074,1.79L10.234,8.313l-.9-.53a2,2,0,0,0-2.424.31L6,9l4.491,4.509L15,18l.908-.908A2,2,0,0,0,16.217,14.668Z"/>
    <polygon points="2 20.614 2 21.946 2.054 22 3.444 22 10.188 15.227 8.771 13.814 2 20.614" />
  </g>
</svg>
