<svg xmlns="http://www.w3.org/2000/svg" width="100%" height="100%" viewBox="0 0 24 24">
  
  <g>
    <path d="M0,0H24V24H0Z" fill="none"/>
    <g>
      <polygon points="7 7 17 7 17 10 19 10 19 2 17 2 17 3 7 3 7 2 5 2 5 10 7 10 7 7" />
      <polygon points="14.99 16.155 17.384 14 20 14 20 12 4 12 4 14 6.616 14 16.331 22.743 17.669 21.257 9.606 14 14.394 14 13.495 14.809 14.99 16.155" />
      <polygon points="6.331 21.257 7.669 22.743 10.505 20.191 9.01 18.845 6.331 21.257" />
    </g>
  </g>
</svg>
