<svg xmlns="http://www.w3.org/2000/svg" width="100%" height="100%" viewBox="0 0 24 24">
  
  <g>
    <path d="M0,0H24V24H0Z" fill="none"/>
    <rect x="6" y="10" width="2" height="2" />
    <rect x="6" y="14" width="2" height="2" />
    <rect x="10" y="10" width="8" height="2"/>
    <rect x="10" y="14" width="4" height="2" />
    <path d="M14.6,18.923l-.6-.587V18H4V8H20v7.693l2,2.024V6a2,2,0,0,0-2-2H4A2,2,0,0,0,2,6V18a2,2,0,0,0,2,2H15.686Z" />
    <g>
      <polygon points="22.363 20.93 17.5 16 16 16 16 17.5 20.929 22.364 22.363 20.93"/>
      <polygon points="21.64 23.067 22.564 23.978 23.978 22.564 23.066 21.641 21.64 23.067" />
    </g>
  </g>
</svg>
