<svg xmlns="http://www.w3.org/2000/svg" width="100%" height="100%" viewBox="0 0 24 24">
  
  <g>
    <path d="M0,0H24V24H0Z" fill="none"/>
    <g>
      <path d="M18,2H6A2,2,0,0,0,4,4V22H20V4A2,2,0,0,0,18,2Zm0,18H16V18H13v2H11V18H8v2H6V4H18Z"/>
      <rect x="8" y="14" width="3" height="2"/>
      <rect x="13" y="14" width="3" height="2" />
      <rect x="8" y="10" width="3" height="2"/>
      <rect x="13" y="10" width="3" height="2"/>
      <rect x="8" y="6" width="3" height="2"/>
      <rect x="13" y="6" width="3" height="2"/>
    </g>
  </g>
</svg>
