<svg xmlns="http://www.w3.org/2000/svg" width="100%" height="100%" viewBox="0 0 24 24">
  
  <g>
    <path d="M0,0H24V24H0Z" fill="none"/>
    <rect x="5" y="10" width="2" height="6"/>
    <polygon points="3 8 21 8 21 6 12 2 3 6 3 8"/>
    <path d="M13,12.54V10H11v6h.09A5.987,5.987,0,0,1,13,12.54Z"/>
    <path d="M19,10H17v1a5.96,5.96,0,0,1,2,.35Z"/>
    <path d="M11.09,18H3v3h9.54A5.974,5.974,0,0,1,11.09,18Z"/>
    <path d="M23.707,22.293l-2.54-2.54a5.015,5.015,0,1,0-1.414,1.414l2.54,2.54ZM17,20a3,3,0,1,1,3-3A3,3,0,0,1,17,20Z"/>
  </g>
</svg>
