<svg xmlns="http://www.w3.org/2000/svg" viewBox="0 0 24 24" width="100%" height="100%">
	<path class="shp0" d="M13,7.5c0,3.04 -2.46,5.5 -5.5,5.5c-3.04,0 -5.5,-2.46 -5.5,-5.5c0,-3.04 2.46,-5.5 5.5,-5.5c3.04,0 5.5,2.46 5.5,5.5zM9.98,7.5c0,-1.37 -1.11,-2.48 -2.47,-2.48c-1.37,0 -2.48,1.11 -2.48,2.48c0,1.37 1.11,2.48 2.48,2.48c1.37,0 2.47,-1.11 2.47,-2.48zM8.05,7.5c0,0.3 -0.25,0.55 -0.55,0.55c-0.3,0 -0.55,-0.25 -0.55,-0.55c0,-0.3 0.25,-0.55 0.55,-0.55c0.3,0 0.55,0.25 0.55,0.55z" />
	<path class="shp0" d="M13.2,14.35l-4.2,-4.2l1.15,-1.15l4.21,4.2zM22,9v4.47l-1.66,-1.66l-10.2,10.19l-1.15,-1.15l10.19,-10.2l-1.66,-1.66zM20.34,19.19l1.66,-1.66v4.47h-4.47l1.67,-1.67l-2.54,-2.54l1.15,-1.15z" />
</svg>