<svg xmlns="http://www.w3.org/2000/svg" width="1600" height="500" viewBox="0 0 1600 500" role="img" aria-label="Flat Monkey Dark">
  <rect width="1600" height="500" fill="#ffffff"/>
  <svg x="130.9" y="100.0" width="327.1" height="300.0" viewBox="0 0 245.76 225.43" xmlns="http://www.w3.org/2000/svg">
<style type="text/css">
	.st0{fill:#828282;}
</style>
<path class="st0" d="M116.54,43.33c14.59,0,32.78,14.31,32.78,21.78c0,8.98-7.52,19.14,3.51,10.95l1.25,4.68l-10.45,3.84
	L116.54,43.33z"/>
<path class="st0" d="M124.13,167.1c-4.27-1.42-19.21-13.88-22.41-1.07c-1.42,6.76-2.13,17.08-18.5,17.08
	c-2.13,0-9.6,4.62-17.43-0.36c-4.45-4.45-16.72-8.19,12.45-18.86c0-7.47,0.52-13.99,0.52-16.72c0-2.73-3.37-9.96,10.87-13.17
	c9.25-2.13,12.81-3.91,12.81-6.76c0-2.29-5.77-2.43-11.39,0.49c-5.62,2.91-28.1,9.86-42.34,7.78c-4.71-0.69-11.26-2.05-17.48-4.61
	c0,0-0.93-3.19-0.11-6.89l180.9-58.22l1.21,8.81c-4.91,0.19-12.04,2.62-15.91,3.84c-20.29,6.41-43.31,27.06-43.31,35.27
	c0,13.87,1.42,29.17-4.98,39.49c0,4.98,8.89,40.2-12.81,44.12c0.76,0.76,0.63,2.84-0.56,4.11L124.13,167.1z"/>
<path d="M123.04,27.68c44,0,79.8,35.8,79.8,79.8c0,44-35.8,79.8-79.8,79.8c-44,0-79.8-35.8-79.8-79.8
	C43.24,63.47,79.04,27.68,123.04,27.68 M123.04,12.68c-52.36,0-94.8,42.44-94.8,94.8c0,52.36,42.44,94.8,94.8,94.8
	c52.36,0,94.8-42.44,94.8-94.8C217.85,55.12,175.4,12.68,123.04,12.68L123.04,12.68z"/>
<path d="M33.04,58.04c-5.73,7.37-13.43,8.83-13.43,28.04c0,12.64,10.42,24.32,26.79,24.32c7.47,0,35.37-4.68,50.67-18.1
	c-2.31-2.31-11.33-7.25-11.33-19.27c0-12.02,14.17-31.61,28.76-31.61c14.59,0,32.78,14.31,32.78,21.78c0,8.98-7.52,19.14,3.51,10.95
	c11.03-8.18,27.75-21.35,54.08-21.35c22.41,0,40.83,23.79,40.83,42.65c0,15.3-13.5,38.54-22.07,33.63
	c-6.44-3.69,0.21-13.67,2.34-19.01c2.14-5.34,10.08-32.74-19.66-35.06c-21.81,0-54.45,27.42-54.45,37.2
	c0,13.87,1.42,29.17-4.98,39.49c0,4.98,8.89,40.2-12.81,44.12c2.31,2.31,3.56,18.15-5.69,18.15c-4.98,0-9.25-9.96-12.81-13.52
	c-3.56-3.56-18.5-11.38,1.42-20.99c2.31-2.31,8.89-4.27,4.98-13.88c-4.27-1.42-19.21-13.88-22.41-1.07
	c-1.42,6.76-2.13,17.08-18.5,17.08c-2.13,0-9.6,4.62-17.43-0.36c-4.45-4.45-16.72-8.19,12.45-18.86c0-7.47,0.52-13.99,0.52-16.72
	c0-2.73-3.37-9.96,10.87-13.17c9.25-2.13,12.81-3.91,12.81-6.76c0-2.29-5.77-2.43-11.39,0.49c-5.62,2.91-28.1,9.86-42.34,7.78
	C31,131.74,0.29,123.22,0.29,82.69c0-12.1,7.14-26.81,20.98-34.27C35.1,40.96,38.77,50.67,33.04,58.04"/>
</svg>

  <path d="M550.84 267L518.08 267L518.08 257.28L522.04 256.92Q525.52 256.56 525.52 253.56L525.52 197.76L518.68 197.40L518.68 187.20L576.64 187.20L576.64 207.12L564.40 207.96L564.40 203.16Q564.40 201.12 563.80 200.28Q563.20 199.44 560.92 199.44L540.16 199.44L540.16 220.68L569.68 220.68L569.68 232.92L540.16 232.92L540.16 256.44L550.84 256.80M582.96 181.44L604.44 181.44L604.44 257.04L611.28 257.40L611.28 267L582.72 267L582.72 257.88L586.68 257.52Q590.16 257.16 590.16 253.68L590.16 194.52Q590.16 191.88 587.16 191.64L582.96 191.40M672.84 209.04L672.84 253.68Q672.84 255.60 673.50 256.32Q674.16 257.04 675.84 257.16L679.68 257.40L679.68 267L660.60 267L660.60 260.04L660.24 259.92Q654.24 268.56 643.80 268.56Q631.56 268.56 625.68 260.76Q619.80 252.96 619.80 239.40Q619.80 223.08 627.72 213.96Q635.64 204.84 651.48 204.84Q661.68 204.84 672.84 209.04M658.92 247.92L658.92 216.84Q655.56 215.28 649.68 215.28Q641.64 215.28 638.04 221.76Q634.44 228.24 634.44 238.92Q634.44 258.36 646.92 258.36Q652.20 258.36 655.56 255.18Q658.92 252 658.92 247.92M697.28 193.92L705.08 193.92L705.08 206.64L721.04 206.64L719.84 216.72L705.08 216.72L705.08 248.28Q705.08 253.56 707 255.66Q708.92 257.76 712.94 257.76Q716.96 257.76 721.04 255.24L724.64 264.48Q718.64 268.68 709.40 268.68Q704 268.68 700.28 267.30Q696.56 265.92 694.76 264.24Q692.96 262.56 692 259.32Q691.04 256.08 690.92 254.22Q690.80 252.36 690.80 248.76L690.80 216.72L682.28 216.72L683.48 207.96Q689.12 207.48 692 203.94Q694.88 200.40 697.28 193.92M755.64 187.20L779.76 187.20L800.16 241.44L800.40 241.44L820.92 187.20L844.68 187.20L844.68 196.92L840.72 197.28Q837.12 197.64 837.24 201.48L840.24 256.44L847.68 256.80L847.68 267L818.76 267L818.76 257.28L823.08 256.92Q826.32 256.68 826.20 253.80L823.92 211.44L823.68 211.44L805.20 259.32L793.80 259.32L775.56 211.92L775.32 211.92L772.92 256.44L780.72 256.80L780.72 267L752.40 267L752.40 257.28L756.72 256.92Q759.48 256.68 759.72 253.68L762.96 197.88L755.64 197.40M881.56 258.24Q894.64 258.24 894.64 237.12Q894.64 226.44 891.70 220.92Q888.76 215.40 881.86 215.40Q874.96 215.40 871.72 220.68Q868.48 225.96 868.48 235.08Q868.48 252 874.72 256.32Q877.48 258.24 881.56 258.24M853.96 236.76Q853.96 227.88 856.60 221.34Q859.24 214.80 863.68 211.32Q872.20 204.84 882.52 204.84Q889.72 204.84 894.70 207.18Q899.68 209.52 902.50 212.58Q905.32 215.64 907.30 221.46Q909.28 227.28 909.28 235.20Q909.28 251.76 901.24 260.28Q893.20 268.80 880.66 268.80Q868.12 268.80 861.04 260.70Q853.96 252.60 853.96 236.76M921.28 216.60L916.24 216.24L916.24 206.64L936.52 206.64L936.52 214.44Q939.64 210 944.80 207.42Q949.96 204.84 955.96 204.84Q965.08 204.84 970.06 210.06Q975.04 215.28 975.04 225.72L975.04 257.04L981.88 257.40L981.88 267L953.32 267L953.32 257.88L957.28 257.52Q959.08 257.28 959.92 256.50Q960.76 255.72 960.76 253.56L960.76 228.84Q960.76 222.24 958.72 219.06Q956.68 215.88 950.98 215.88Q945.28 215.88 941.92 219.48Q938.56 223.08 938.56 228L938.56 257.04L945.40 257.40L945.40 267L916.84 267L916.84 257.88L920.80 257.52Q922.60 257.28 923.44 256.50Q924.28 255.72 924.28 253.56L924.28 220.32Q924.28 216.72 921.28 216.60M996.40 253.56L996.40 195.12Q996.40 193.20 995.74 192.48Q995.08 191.76 993.40 191.64L989.20 191.40L989.20 181.44L1010.56 181.44L1010.56 233.40Q1017.16 232.80 1022.08 229.32Q1027 225.84 1028.80 220.20Q1029.16 219 1029.16 218.28Q1029.16 216.24 1026.88 216.24L1022.32 216L1022.32 206.64L1047.16 206.64L1047.16 216.36L1041.40 216.60Q1039.84 228.84 1030.84 235.92L1042.60 257.04L1049.92 257.40L1049.92 267L1032.40 267L1018.72 242.04Q1014.76 243.12 1010.56 243.72L1010.56 257.04L1010.68 257.04L1017.52 257.40L1017.52 267L988.96 267L988.96 257.88L992.92 257.52Q994.72 257.28 995.56 256.50Q996.40 255.72 996.40 253.56M1086.08 204.84Q1095.08 204.84 1100.36 209.22Q1105.64 213.60 1105.64 221.52Q1105.64 226.80 1103.36 230.82Q1101.08 234.84 1097.72 237.12Q1094.36 239.40 1089.56 240.84Q1081.52 243.24 1071.44 243.24Q1071.80 249.60 1075.40 253.50Q1079 257.40 1086.44 257.40Q1093.88 257.40 1101.32 252.12L1105.88 261.84Q1103.48 264 1097.78 266.28Q1092.08 268.56 1084.76 268.56Q1070.12 268.56 1063.28 260.46Q1056.44 252.36 1056.44 238.20Q1056.44 224.04 1064.24 214.44Q1072.04 204.84 1086.08 204.84M1080.62 232.26Q1085 231.48 1088.72 228.78Q1092.44 226.08 1092.44 222.36Q1092.44 215.04 1085.24 215.04Q1078.52 215.04 1074.92 220.38Q1071.32 225.72 1070.96 233.16Q1076.24 233.04 1080.62 232.26M1158.12 264.72L1158.12 255.60Q1151.52 264.96 1138.68 264.96Q1120.08 264.96 1120.08 244.20L1120.08 220.08Q1120.08 216.84 1117.08 216.72L1113.24 216.48L1113.24 206.64L1134.36 206.64L1134.36 241.08Q1134.36 247.44 1136.16 250.68Q1137.96 253.92 1143.60 253.92Q1149.24 253.92 1152.66 250.44Q1156.08 246.96 1156.08 242.04L1156.08 220.32Q1156.08 218.28 1155.42 217.50Q1154.76 216.72 1153.08 216.72L1149.24 216.48L1149.24 206.64L1170.36 206.64L1170.36 264.72Q1170.36 279.24 1163.34 285.96Q1156.32 292.68 1142.10 292.68Q1127.88 292.68 1119.96 288.72L1119.96 272.04L1131.36 271.08L1131.36 276.84Q1131.36 280.08 1134.36 281.22Q1137.36 282.36 1142.64 282.36Q1158.12 282.36 1158.12 264.72M1241.16 267L1207.08 267L1207.08 257.28L1211.04 256.92Q1214.52 256.56 1214.52 253.56L1214.52 197.76L1207.68 197.40L1207.68 187.20L1240.56 187.20Q1258.20 187.20 1268.10 196.56Q1278 205.92 1278 224.28Q1278 235.68 1275 244.14Q1272 252.60 1266.84 257.40Q1256.52 267 1241.16 267M1239.84 198.84L1229.16 198.84L1229.16 255.48L1241.40 255.48Q1251.72 255.48 1257.48 248.04Q1263.24 240.60 1263.24 226.44Q1263.24 198.84 1239.84 198.84M1340.84 209.04L1340.84 253.68Q1340.84 255.60 1341.50 256.32Q1342.16 257.04 1343.84 257.16L1347.68 257.40L1347.68 267L1328.60 267L1328.60 260.04L1328.24 259.92Q1322.24 268.56 1311.80 268.56Q1299.56 268.56 1293.68 260.76Q1287.80 252.96 1287.80 239.40Q1287.80 223.08 1295.72 213.96Q1303.64 204.84 1319.48 204.84Q1329.68 204.84 1340.84 209.04M1326.92 247.92L1326.92 216.84Q1323.56 215.28 1317.68 215.28Q1309.64 215.28 1306.04 221.76Q1302.44 228.24 1302.44 238.92Q1302.44 258.36 1314.92 258.36Q1320.20 258.36 1323.56 255.18Q1326.92 252 1326.92 247.92M1362.40 253.56L1362.40 220.32Q1362.40 218.40 1361.74 217.62Q1361.08 216.84 1359.40 216.72L1354.36 216.36L1354.36 206.64L1374.64 206.64L1374.64 215.64Q1376.80 210.96 1381.36 207.90Q1385.92 204.84 1391.86 204.84Q1397.80 204.84 1403.20 207.48L1403.20 225.36L1392.04 226.20L1392.04 220.68Q1392.04 218.28 1390.84 217.68Q1389.52 217.08 1387.60 217.08Q1382.80 217.08 1379.74 220.50Q1376.68 223.92 1376.68 229.20L1376.68 257.04L1387.12 257.52L1387.12 267L1354.96 267L1354.96 257.88L1358.92 257.52Q1360.72 257.28 1361.56 256.50Q1362.40 255.72 1362.40 253.56M1413.40 253.56L1413.40 195.12Q1413.40 193.20 1412.74 192.48Q1412.08 191.76 1410.40 191.64L1406.20 191.40L1406.20 181.44L1427.56 181.44L1427.56 233.40Q1434.16 232.80 1439.08 229.32Q1444 225.84 1445.80 220.20Q1446.16 219 1446.16 218.28Q1446.16 216.24 1443.88 216.24L1439.32 216L1439.32 206.64L1464.16 206.64L1464.16 216.36L1458.40 216.60Q1456.84 228.84 1447.84 235.92L1459.60 257.04L1466.92 257.40L1466.92 267L1449.40 267L1435.72 242.04Q1431.76 243.12 1427.56 243.72L1427.56 257.04L1427.68 257.04L1434.52 257.40L1434.52 267L1405.96 267L1405.96 257.88L1409.92 257.52Q1411.72 257.28 1412.56 256.50Q1413.40 255.72 1413.40 253.56" fill="#161616"/>
  <path d="M521.52 348.20L526.12 348.20Q527.78 348.20 529.05 347.76Q530.32 347.32 531.19 346.53Q532.06 345.74 532.50 344.64Q532.94 343.54 532.94 342.22Q532.94 339.48 531.25 337.94Q529.56 336.40 526.12 336.40L521.52 336.40L521.52 348.20M517.66 333.34L526.12 333.34Q528.84 333.34 530.85 333.97Q532.86 334.60 534.18 335.76Q535.50 336.92 536.15 338.56Q536.80 340.20 536.80 342.22Q536.80 344.22 536.10 345.88Q535.40 347.54 534.05 348.74Q532.70 349.94 530.71 350.61Q528.72 351.28 526.12 351.28L521.52 351.28L521.52 362L517.66 362M540.94 332.54L544.50 332.54L544.50 362L540.94 362M560.80 357.08L560.80 352.88Q558.34 352.96 556.61 353.27Q554.88 353.58 553.79 354.08Q552.70 354.58 552.21 355.26Q551.72 355.94 551.72 356.78Q551.72 357.58 551.98 358.16Q552.24 358.74 552.69 359.11Q553.14 359.48 553.75 359.65Q554.36 359.82 555.06 359.82Q556 359.82 556.78 359.63Q557.56 359.44 558.25 359.08Q558.94 358.72 559.57 358.22Q560.20 357.72 560.80 357.08M549.94 345.74L549.30 344.60Q550.98 342.98 552.92 342.18Q554.86 341.38 557.22 341.38Q558.92 341.38 560.24 341.94Q561.56 342.50 562.46 343.50Q563.36 344.50 563.82 345.92Q564.28 347.34 564.28 349.04L564.28 362L562.70 362Q562.18 362 561.90 361.83Q561.62 361.66 561.46 361.16L561.06 359.24Q560.26 359.98 559.50 360.55Q558.74 361.12 557.90 361.51Q557.06 361.90 556.11 362.11Q555.16 362.32 554 362.32Q552.82 362.32 551.78 361.99Q550.74 361.66 549.97 361Q549.20 360.34 548.75 359.33Q548.30 358.32 548.30 356.94Q548.30 355.74 548.96 354.63Q549.62 353.52 551.10 352.66Q552.58 351.80 554.96 351.25Q557.34 350.70 560.80 350.62L560.80 349.04Q560.80 346.68 559.78 345.47Q558.76 344.26 556.80 344.26Q555.48 344.26 554.59 344.59Q553.70 344.92 553.05 345.33Q552.40 345.74 551.93 346.07Q551.46 346.40 551 346.40Q550.64 346.40 550.38 346.21Q550.12 346.02 549.94 345.74M584.48 341.74L587.30 341.74L576 367.98Q575.82 368.38 575.55 368.62Q575.28 368.86 574.72 368.86L572.08 368.86L575.78 360.82L567.42 341.74L570.50 341.74Q570.96 341.74 571.23 341.97Q571.50 342.20 571.60 342.48L577.02 355.24Q577.34 356.08 577.56 357Q577.84 356.06 578.16 355.22L583.42 342.48Q583.54 342.16 583.83 341.95Q584.12 341.74 584.48 341.74M601.02 341.74L604.58 341.74L604.58 362L601.02 362L601.02 341.74M605.34 335.38Q605.34 335.90 605.13 336.35Q604.92 336.80 604.57 337.15Q604.22 337.50 603.75 337.70Q603.28 337.90 602.76 337.90Q602.24 337.90 601.79 337.70Q601.34 337.50 601 337.15Q600.66 336.80 600.46 336.35Q600.26 335.90 600.26 335.38Q600.26 334.86 600.46 334.39Q600.66 333.92 601 333.57Q601.34 333.22 601.79 333.02Q602.24 332.82 602.76 332.82Q603.28 332.82 603.75 333.02Q604.22 333.22 604.57 333.57Q604.92 333.92 605.13 334.39Q605.34 334.86 605.34 335.38M617.04 362.32Q614.64 362.32 613.35 360.98Q612.06 359.64 612.06 357.12L612.06 344.72L609.62 344.72Q609.30 344.72 609.08 344.53Q608.86 344.34 608.86 343.94L608.86 342.52L612.18 342.10L613 335.84Q613.06 335.54 613.27 335.35Q613.48 335.16 613.82 335.16L615.62 335.16L615.62 342.14L621.48 342.14L621.48 344.72L615.62 344.72L615.62 356.88Q615.62 358.16 616.24 358.78Q616.86 359.40 617.84 359.40Q618.40 359.40 618.81 359.25Q619.22 359.10 619.52 358.92Q619.82 358.74 620.03 358.59Q620.24 358.44 620.40 358.44Q620.68 358.44 620.90 358.78L621.94 360.48Q621.02 361.34 619.72 361.83Q618.42 362.32 617.04 362.32M624.22 359.80Q624.22 359.28 624.41 358.82Q624.60 358.36 624.93 358.02Q625.26 357.68 625.72 357.48Q626.18 357.28 626.70 357.28Q627.22 357.28 627.68 357.48Q628.14 357.68 628.48 358.02Q628.82 358.36 629.02 358.82Q629.22 359.28 629.22 359.80Q629.22 360.34 629.02 360.79Q628.82 361.24 628.48 361.58Q628.14 361.92 627.68 362.11Q627.22 362.30 626.70 362.30Q626.18 362.30 625.72 362.11Q625.26 361.92 624.93 361.58Q624.60 361.24 624.41 360.79Q624.22 360.34 624.22 359.80M665.04 333.34L665.04 336.60L655.76 336.60L655.76 362L651.90 362L651.90 336.60L642.60 336.60L642.60 333.34M678.80 357.08L678.80 352.88Q676.34 352.96 674.61 353.27Q672.88 353.58 671.79 354.08Q670.70 354.58 670.21 355.26Q669.72 355.94 669.72 356.78Q669.72 357.58 669.98 358.16Q670.24 358.74 670.69 359.11Q671.14 359.48 671.75 359.65Q672.36 359.82 673.06 359.82Q674 359.82 674.78 359.63Q675.56 359.44 676.25 359.08Q676.94 358.72 677.57 358.22Q678.20 357.72 678.80 357.08M667.94 345.74L667.30 344.60Q668.98 342.98 670.92 342.18Q672.86 341.38 675.22 341.38Q676.92 341.38 678.24 341.94Q679.56 342.50 680.46 343.50Q681.36 344.50 681.82 345.92Q682.28 347.34 682.28 349.04L682.28 362L680.70 362Q680.18 362 679.90 361.83Q679.62 361.66 679.46 361.16L679.06 359.24Q678.26 359.98 677.50 360.55Q676.74 361.12 675.90 361.51Q675.06 361.90 674.11 362.11Q673.16 362.32 672 362.32Q670.82 362.32 669.78 361.99Q668.74 361.66 667.97 361Q667.20 360.34 666.75 359.33Q666.30 358.32 666.30 356.94Q666.30 355.74 666.96 354.63Q667.62 353.52 669.10 352.66Q670.58 351.80 672.96 351.25Q675.34 350.70 678.80 350.62L678.80 349.04Q678.80 346.68 677.78 345.47Q676.76 344.26 674.80 344.26Q673.48 344.26 672.59 344.59Q671.70 344.92 671.05 345.33Q670.40 345.74 669.93 346.07Q669.46 346.40 669 346.40Q668.64 346.40 668.38 346.21Q668.12 346.02 667.94 345.74M694.88 352.10Q695.96 352.10 696.78 351.80Q697.60 351.50 698.16 350.96Q698.72 350.42 699 349.67Q699.28 348.92 699.28 348.02Q699.28 346.16 698.15 345.06Q697.02 343.96 694.88 343.96Q692.72 343.96 691.59 345.06Q690.46 346.16 690.46 348.02Q690.46 348.92 690.75 349.67Q691.04 350.42 691.60 350.96Q692.16 351.50 692.98 351.80Q693.80 352.10 694.88 352.10M701.30 363.10Q701.30 362.36 700.88 361.90Q700.46 361.44 699.75 361.18Q699.04 360.92 698.10 360.81Q697.16 360.70 696.11 360.64Q695.06 360.58 693.98 360.52Q692.90 360.46 691.90 360.32Q690.78 360.84 690.07 361.63Q689.36 362.42 689.36 363.48Q689.36 364.16 689.71 364.75Q690.06 365.34 690.78 365.77Q691.50 366.20 692.59 366.45Q693.68 366.70 695.16 366.70Q696.60 366.70 697.74 366.44Q698.88 366.18 699.67 365.70Q700.46 365.22 700.88 364.56Q701.30 363.90 701.30 363.10M699.42 342.54L704.92 342.54L704.92 343.86Q704.92 344.52 704.08 344.70L701.78 345Q702.46 346.32 702.46 347.92Q702.46 349.40 701.89 350.61Q701.32 351.82 700.32 352.68Q699.32 353.54 697.92 354Q696.52 354.46 694.88 354.46Q693.46 354.46 692.20 354.12Q691.56 354.52 691.22 354.97Q690.88 355.42 690.88 355.88Q690.88 356.60 691.47 356.97Q692.06 357.34 693.02 357.50Q693.98 357.66 695.21 357.70Q696.44 357.74 697.73 357.83Q699.02 357.92 700.25 358.14Q701.48 358.36 702.44 358.86Q703.40 359.36 703.99 360.24Q704.58 361.12 704.58 362.52Q704.58 363.82 703.93 365.04Q703.28 366.26 702.06 367.21Q700.84 368.16 699.07 368.73Q697.30 369.30 695.08 369.30Q692.86 369.30 691.20 368.86Q689.54 368.42 688.44 367.68Q687.34 366.94 686.79 365.97Q686.24 365 686.24 363.94Q686.24 362.44 687.18 361.40Q688.12 360.36 689.76 359.74Q688.86 359.34 688.33 358.67Q687.80 358 687.80 356.86Q687.80 356.42 687.96 355.95Q688.12 355.48 688.45 355.01Q688.78 354.54 689.26 354.12Q689.74 353.70 690.38 353.38Q688.88 352.54 688.04 351.15Q687.20 349.76 687.20 347.92Q687.20 346.44 687.77 345.23Q688.34 344.02 689.36 343.17Q690.38 342.32 691.79 341.86Q693.20 341.40 694.88 341.40Q696.20 341.40 697.34 341.69Q698.48 341.98 699.42 342.54M719.02 341.74L722.58 341.74L722.58 362L719.02 362L719.02 341.74M723.34 335.38Q723.34 335.90 723.13 336.35Q722.92 336.80 722.57 337.15Q722.22 337.50 721.75 337.70Q721.28 337.90 720.76 337.90Q720.24 337.90 719.79 337.70Q719.34 337.50 719 337.15Q718.66 336.80 718.46 336.35Q718.26 335.90 718.26 335.38Q718.26 334.86 718.46 334.39Q718.66 333.92 719 333.57Q719.34 333.22 719.79 333.02Q720.24 332.82 720.76 332.82Q721.28 332.82 721.75 333.02Q722.22 333.22 722.57 333.57Q722.92 333.92 723.13 334.39Q723.34 334.86 723.34 335.38M735.04 362.32Q732.64 362.32 731.35 360.98Q730.06 359.64 730.06 357.12L730.06 344.72L727.62 344.72Q727.30 344.72 727.08 344.53Q726.86 344.34 726.86 343.94L726.86 342.52L730.18 342.10L731 335.84Q731.06 335.54 731.27 335.35Q731.48 335.16 731.82 335.16L733.62 335.16L733.62 342.14L739.48 342.14L739.48 344.72L733.62 344.72L733.62 356.88Q733.62 358.16 734.24 358.78Q734.86 359.40 735.84 359.40Q736.40 359.40 736.81 359.25Q737.22 359.10 737.52 358.92Q737.82 358.74 738.03 358.59Q738.24 358.44 738.40 358.44Q738.68 358.44 738.90 358.78L739.94 360.48Q739.02 361.34 737.72 361.83Q736.42 362.32 735.04 362.32M742.22 359.80Q742.22 359.28 742.41 358.82Q742.60 358.36 742.93 358.02Q743.26 357.68 743.72 357.48Q744.18 357.28 744.70 357.28Q745.22 357.28 745.68 357.48Q746.14 357.68 746.48 358.02Q746.82 358.36 747.02 358.82Q747.22 359.28 747.22 359.80Q747.22 360.34 747.02 360.79Q746.82 361.24 746.48 361.58Q746.14 361.92 745.68 362.11Q745.22 362.30 744.70 362.30Q744.18 362.30 743.72 362.11Q743.26 361.92 742.93 361.58Q742.60 361.24 742.41 360.79Q742.22 360.34 742.22 359.80M767.54 333.34L767.54 362L763.66 362L763.66 333.34M776.90 342.48L777.18 344.68Q777.84 343.94 778.58 343.34Q779.32 342.74 780.15 342.31Q780.98 341.88 781.91 341.65Q782.84 341.42 783.92 341.42Q785.58 341.42 786.85 341.97Q788.12 342.52 788.97 343.53Q789.82 344.54 790.26 345.96Q790.70 347.38 790.70 349.10L790.70 362L787.12 362L787.12 349.10Q787.12 346.80 786.07 345.53Q785.02 344.26 782.88 344.26Q781.30 344.26 779.93 345.02Q778.56 345.78 777.40 347.08L777.40 362L773.82 362L773.82 341.74L775.96 341.74Q776.72 341.74 776.90 342.48M813.04 362.32Q810.64 362.32 809.35 360.98Q808.06 359.64 808.06 357.12L808.06 344.72L805.62 344.72Q805.30 344.72 805.08 344.53Q804.86 344.34 804.86 343.94L804.86 342.52L808.18 342.10L809 335.84Q809.06 335.54 809.27 335.35Q809.48 335.16 809.82 335.16L811.62 335.16L811.62 342.14L817.48 342.14L817.48 344.72L811.62 344.72L811.62 356.88Q811.62 358.16 812.24 358.78Q812.86 359.40 813.84 359.40Q814.40 359.40 814.81 359.25Q815.22 359.10 815.52 358.92Q815.82 358.74 816.03 358.59Q816.24 358.44 816.40 358.44Q816.68 358.44 816.90 358.78L817.94 360.48Q817.02 361.34 815.72 361.83Q814.42 362.32 813.04 362.32M824.40 332.54L824.40 344.44Q825.70 343.06 827.28 342.24Q828.86 341.42 830.92 341.42Q832.58 341.42 833.85 341.97Q835.12 342.52 835.97 343.53Q836.82 344.54 837.26 345.96Q837.70 347.38 837.70 349.10L837.70 362L834.12 362L834.12 349.10Q834.12 346.80 833.07 345.53Q832.02 344.26 829.88 344.26Q828.30 344.26 826.93 345.02Q825.56 345.78 824.40 347.08L824.40 362L820.82 362L820.82 332.54M845.30 349.66L856.38 349.66Q856.38 348.42 856.03 347.39Q855.68 346.36 855.01 345.61Q854.34 344.86 853.38 344.45Q852.42 344.04 851.20 344.04Q848.64 344.04 847.15 345.53Q845.66 347.02 845.30 349.66M858.26 357.86L859.26 359.16Q858.60 359.96 857.68 360.55Q856.76 361.14 855.71 361.52Q854.66 361.90 853.54 362.09Q852.42 362.28 851.32 362.28Q849.22 362.28 847.45 361.57Q845.68 360.86 844.39 359.49Q843.10 358.12 842.38 356.10Q841.66 354.08 841.66 351.46Q841.66 349.34 842.31 347.50Q842.96 345.66 844.18 344.31Q845.40 342.96 847.16 342.19Q848.92 341.42 851.12 341.42Q852.94 341.42 854.49 342.03Q856.04 342.64 857.17 343.79Q858.30 344.94 858.94 346.63Q859.58 348.32 859.58 350.48Q859.58 351.32 859.40 351.60Q859.22 351.88 858.72 351.88L845.18 351.88Q845.24 353.80 845.71 355.22Q846.18 356.64 847.02 357.59Q847.86 358.54 849.02 359.01Q850.18 359.48 851.62 359.48Q852.96 359.48 853.93 359.17Q854.90 358.86 855.60 358.50Q856.30 358.14 856.77 357.83Q857.24 357.52 857.58 357.52Q858.02 357.52 858.26 357.86M888.02 356.34L888.02 346.56Q887.02 345.22 885.86 344.69Q884.70 344.16 883.26 344.16Q880.44 344.16 878.92 346.18Q877.40 348.20 877.40 351.94Q877.40 353.92 877.74 355.33Q878.08 356.74 878.74 357.65Q879.40 358.56 880.36 358.98Q881.32 359.40 882.54 359.40Q884.30 359.40 885.61 358.60Q886.92 357.80 888.02 356.34M888.02 332.54L891.58 332.54L891.58 362L889.46 362Q888.70 362 888.50 361.26L888.18 358.80Q886.88 360.36 885.22 361.32Q883.56 362.28 881.38 362.28Q879.64 362.28 878.22 361.61Q876.80 360.94 875.80 359.64Q874.80 358.34 874.26 356.40Q873.72 354.46 873.72 351.94Q873.72 349.70 874.32 347.77Q874.92 345.84 876.04 344.42Q877.16 343 878.79 342.19Q880.42 341.38 882.46 341.38Q884.32 341.38 885.65 342.01Q886.98 342.64 888.02 343.76M907.80 357.08L907.80 352.88Q905.34 352.96 903.61 353.27Q901.88 353.58 900.79 354.08Q899.70 354.58 899.21 355.26Q898.72 355.94 898.72 356.78Q898.72 357.58 898.98 358.16Q899.24 358.74 899.69 359.11Q900.14 359.48 900.75 359.65Q901.36 359.82 902.06 359.82Q903 359.82 903.78 359.63Q904.56 359.44 905.25 359.08Q905.94 358.72 906.57 358.22Q907.20 357.72 907.80 357.08M896.94 345.74L896.30 344.60Q897.98 342.98 899.92 342.18Q901.86 341.38 904.22 341.38Q905.92 341.38 907.24 341.94Q908.56 342.50 909.46 343.50Q910.36 344.50 910.82 345.92Q911.28 347.34 911.28 349.04L911.28 362L909.70 362Q909.18 362 908.90 361.83Q908.62 361.66 908.46 361.16L908.06 359.24Q907.26 359.98 906.50 360.55Q905.74 361.12 904.90 361.51Q904.06 361.90 903.11 362.11Q902.16 362.32 901 362.32Q899.82 362.32 898.78 361.99Q897.74 361.66 896.97 361Q896.20 360.34 895.75 359.33Q895.30 358.32 895.30 356.94Q895.30 355.74 895.96 354.63Q896.62 353.52 898.10 352.66Q899.58 351.80 901.96 351.25Q904.34 350.70 907.80 350.62L907.80 349.04Q907.80 346.68 906.78 345.47Q905.76 344.26 903.80 344.26Q902.48 344.26 901.59 344.59Q900.70 344.92 900.05 345.33Q899.40 345.74 898.93 346.07Q898.46 346.40 898 346.40Q897.64 346.40 897.38 346.21Q897.12 346.02 896.94 345.74M919.96 342.72L920.20 345.80Q921.16 343.72 922.56 342.55Q923.96 341.38 925.98 341.38Q926.62 341.38 927.21 341.52Q927.80 341.66 928.26 341.96L928 344.62Q927.88 345.12 927.40 345.12Q927.12 345.12 926.58 345Q926.04 344.88 925.36 344.88Q924.40 344.88 923.65 345.16Q922.90 345.44 922.31 345.99Q921.72 346.54 921.25 347.35Q920.78 348.16 920.40 349.20L920.40 362L916.82 362L916.82 341.74L918.86 341.74Q919.44 341.74 919.66 341.96Q919.88 342.18 919.96 342.72M931.82 332.54L935.40 332.54L935.40 349.88L936.32 349.88Q936.72 349.88 936.99 349.77Q937.26 349.66 937.56 349.32L943.96 342.46Q944.24 342.12 944.55 341.93Q944.86 341.74 945.38 341.74L948.60 341.74L941.14 349.68Q940.60 350.36 939.98 350.74Q940.34 350.98 940.63 351.29Q940.92 351.60 941.18 352L949.10 362L945.92 362Q945.46 362 945.13 361.85Q944.80 361.70 944.56 361.30L937.90 353Q937.60 352.58 937.31 352.45Q937.02 352.32 936.42 352.32L935.40 352.32L935.40 362L931.82 362M951.22 359.80Q951.22 359.28 951.41 358.82Q951.60 358.36 951.93 358.02Q952.26 357.68 952.72 357.48Q953.18 357.28 953.70 357.28Q954.22 357.28 954.68 357.48Q955.14 357.68 955.48 358.02Q955.82 358.36 956.02 358.82Q956.22 359.28 956.22 359.80Q956.22 360.34 956.02 360.79Q955.82 361.24 955.48 361.58Q955.14 361.92 954.68 362.11Q954.22 362.30 953.70 362.30Q953.18 362.30 952.72 362.11Q952.26 361.92 951.93 361.58Q951.60 361.24 951.41 360.79Q951.22 360.34 951.22 359.80" fill="#5a5d5e"/>
</svg>
