<svg xmlns="http://www.w3.org/2000/svg" width="1600" height="500" viewBox="0 0 1600 500" role="img" aria-label="Flat Monkey Dark">
  <rect width="1600" height="500" fill="#ffffff"/>
  <svg x="80.0" y="100.3" width="326.5" height="299.5" viewBox="0 0 245.76 225.43" xmlns="http://www.w3.org/2000/svg">
<style type="text/css">
	.st0{fill:#828282;}
</style>
<path class="st0" d="M116.54,43.33c14.59,0,32.78,14.31,32.78,21.78c0,8.98-7.52,19.14,3.51,10.95l1.25,4.68l-10.45,3.84
	L116.54,43.33z"/>
<path class="st0" d="M124.13,167.1c-4.27-1.42-19.21-13.88-22.41-1.07c-1.42,6.76-2.13,17.08-18.5,17.08
	c-2.13,0-9.6,4.62-17.43-0.36c-4.45-4.45-16.72-8.19,12.45-18.86c0-7.47,0.52-13.99,0.52-16.72c0-2.73-3.37-9.96,10.87-13.17
	c9.25-2.13,12.81-3.91,12.81-6.76c0-2.29-5.77-2.43-11.39,0.49c-5.62,2.91-28.1,9.86-42.34,7.78c-4.71-0.69-11.26-2.05-17.48-4.61
	c0,0-0.93-3.19-0.11-6.89l180.9-58.22l1.21,8.81c-4.91,0.19-12.04,2.62-15.91,3.84c-20.29,6.41-43.31,27.06-43.31,35.27
	c0,13.87,1.42,29.17-4.98,39.49c0,4.98,8.89,40.2-12.81,44.12c0.76,0.76,0.63,2.84-0.56,4.11L124.13,167.1z"/>
<path d="M123.04,27.68c44,0,79.8,35.8,79.8,79.8c0,44-35.8,79.8-79.8,79.8c-44,0-79.8-35.8-79.8-79.8
	C43.24,63.47,79.04,27.68,123.04,27.68 M123.04,12.68c-52.36,0-94.8,42.44-94.8,94.8c0,52.36,42.44,94.8,94.8,94.8
	c52.36,0,94.8-42.44,94.8-94.8C217.85,55.12,175.4,12.68,123.04,12.68L123.04,12.68z"/>
<path d="M33.04,58.04c-5.73,7.37-13.43,8.83-13.43,28.04c0,12.64,10.42,24.32,26.79,24.32c7.47,0,35.37-4.68,50.67-18.1
	c-2.31-2.31-11.33-7.25-11.33-19.27c0-12.02,14.17-31.61,28.76-31.61c14.59,0,32.78,14.31,32.78,21.78c0,8.98-7.52,19.14,3.51,10.95
	c11.03-8.18,27.75-21.35,54.08-21.35c22.41,0,40.83,23.79,40.83,42.65c0,15.3-13.5,38.54-22.07,33.63
	c-6.44-3.69,0.21-13.67,2.34-19.01c2.14-5.34,10.08-32.74-19.66-35.06c-21.81,0-54.45,27.42-54.45,37.2
	c0,13.87,1.42,29.17-4.98,39.49c0,4.98,8.89,40.2-12.81,44.12c2.31,2.31,3.56,18.15-5.69,18.15c-4.98,0-9.25-9.96-12.81-13.52
	c-3.56-3.56-18.5-11.38,1.42-20.99c2.31-2.31,8.89-4.27,4.98-13.88c-4.27-1.42-19.21-13.88-22.41-1.07
	c-1.42,6.76-2.13,17.08-18.5,17.08c-2.13,0-9.6,4.62-17.43-0.36c-4.45-4.45-16.72-8.19,12.45-18.86c0-7.47,0.52-13.99,0.52-16.72
	c0-2.73-3.37-9.96,10.87-13.17c9.25-2.13,12.81-3.91,12.81-6.76c0-2.29-5.77-2.43-11.39,0.49c-5.62,2.91-28.1,9.86-42.34,7.78
	C31,131.74,0.29,123.22,0.29,82.69c0-12.1,7.14-26.81,20.98-34.27C35.1,40.96,38.77,50.67,33.04,58.04"/>
</svg>

  <path d="M490.98 232.18L490.98 265.98L473.14 265.98L473.14 180.47L522.16 180.47L522.16 195.33L490.98 195.33L490.98 217.38L519.99 217.38L519.99 232.18M555.32 174.97L555.32 265.98L537.48 265.98L537.48 174.97M600.83 199.25Q613.99 199.25 621 204.98Q628.02 210.71 628.02 222.41L628.02 265.98L615.56 265.98L612.11 257.09L611.65 257.09Q608.84 260.60 605.91 262.83Q602.99 265.05 599.19 266.10Q595.39 267.15 589.95 267.15Q584.16 267.15 579.56 264.93Q574.97 262.71 572.34 258.12Q569.71 253.53 569.71 246.45Q569.71 236.04 577.02 231.10Q584.33 226.15 598.95 225.63L610.30 225.28L610.30 222.41Q610.30 217.26 607.61 214.86Q604.92 212.47 600.12 212.47Q595.39 212.47 590.82 213.81Q586.26 215.16 581.70 217.20L575.79 205.15Q581 202.41 587.46 200.83Q593.92 199.25 600.83 199.25M610.30 241.07L610.30 235.69L603.40 235.92Q594.74 236.15 591.38 239.02Q588.02 241.89 588.02 246.57Q588.02 250.66 590.41 252.39Q592.81 254.11 596.67 254.11Q602.40 254.11 606.35 250.72Q610.30 247.33 610.30 241.07M673.94 252.94Q676.86 252.94 679.64 252.36Q682.42 251.77 685.17 250.89L685.17 264.17Q682.30 265.46 678.06 266.31Q673.82 267.15 668.79 267.15Q662.94 267.15 658.29 265.25Q653.64 263.35 650.98 258.64Q648.32 253.94 648.32 245.51L648.32 213.99L639.78 213.99L639.78 206.44L649.61 200.48L654.75 186.67L666.16 186.67L666.16 200.59L684.47 200.59L684.47 213.99L666.16 213.99L666.16 245.51Q666.16 249.26 668.29 251.10Q670.43 252.94 673.94 252.94M783.72 265.98L767.11 265.98L746.52 198.90L746 198.90Q746.11 201.29 746.38 206.12Q746.64 210.95 746.88 216.38Q747.11 221.82 747.11 226.21L747.11 265.98L730.91 265.98L730.91 180.47L755.59 180.47L775.83 245.86L776.18 245.86L797.64 180.47L822.33 180.47L822.33 265.98L805.42 265.98L805.42 225.51Q805.42 221.47 805.57 216.21Q805.72 210.95 805.95 206.18Q806.18 201.41 806.30 199.01L805.78 199.01M901.87 233.17Q901.87 241.36 899.68 247.68Q897.49 253.99 893.31 258.35Q889.12 262.71 883.25 264.93Q877.37 267.15 870 267.15Q863.10 267.15 857.33 264.93Q851.57 262.71 847.33 258.35Q843.09 253.99 840.78 247.68Q838.47 241.36 838.47 233.17Q838.47 222.29 842.33 214.75Q846.19 207.20 853.33 203.28Q860.46 199.36 870.35 199.36Q879.53 199.36 886.64 203.28Q893.74 207.20 897.81 214.75Q901.87 222.29 901.87 233.17M856.66 233.17Q856.66 239.61 858.07 243.99Q859.47 248.38 862.45 250.60Q865.44 252.82 870.23 252.82Q874.97 252.82 877.92 250.60Q880.88 248.38 882.25 243.99Q883.63 239.61 883.63 233.17Q883.63 226.68 882.25 222.38Q880.88 218.08 877.89 215.92Q874.91 213.75 870.11 213.75Q863.04 213.75 859.85 218.61Q856.66 223.46 856.66 233.17M953.76 199.36Q964.23 199.36 970.60 205.07Q976.98 210.77 976.98 223.35L976.98 265.98L959.14 265.98L959.14 227.79Q959.14 220.77 956.59 217.20Q954.05 213.64 948.61 213.64Q940.42 213.64 937.44 219.19Q934.45 224.75 934.45 235.22L934.45 265.98L916.61 265.98L916.61 200.59L930.24 200.59L932.64 208.96L933.63 208.96Q935.74 205.56 938.87 203.46Q942 201.35 945.83 200.36Q949.66 199.36 953.76 199.36M995.34 174.97L1013.18 174.97L1013.18 215.68Q1013.18 219.37 1012.89 223.05Q1012.60 226.74 1012.25 230.42L1012.48 230.42Q1014.29 227.85 1016.19 225.33Q1018.09 222.82 1020.26 220.48L1038.57 200.59L1058.69 200.59L1032.72 228.96L1060.27 265.98L1039.68 265.98L1020.84 239.49L1013.18 245.63L1013.18 265.98L995.34 265.98M1096.59 199.36Q1105.65 199.36 1112.21 202.84Q1118.76 206.32 1122.32 212.93Q1125.89 219.54 1125.89 229.08L1125.89 237.73L1083.72 237.73Q1084.01 245.28 1088.25 249.58Q1092.49 253.88 1100.04 253.88Q1106.30 253.88 1111.50 252.59Q1116.71 251.30 1122.21 248.73L1122.21 262.53Q1117.35 264.93 1112.06 266.04Q1106.77 267.15 1099.22 267.15Q1089.39 267.15 1081.82 263.53Q1074.25 259.90 1069.95 252.47Q1065.65 245.04 1065.65 233.76Q1065.65 222.29 1069.54 214.66Q1073.43 207.03 1080.39 203.20Q1087.35 199.36 1096.59 199.36M1096.71 212.06Q1091.50 212.06 1088.08 215.39Q1084.66 218.72 1084.13 225.86L1109.16 225.86Q1109.11 221.88 1107.73 218.78Q1106.36 215.68 1103.64 213.87Q1100.92 212.06 1096.71 212.06M1157.01 265.52L1131.04 200.59L1150.58 200.59L1162.92 237.38Q1163.50 239.14 1163.91 240.95Q1164.32 242.76 1164.61 244.69Q1164.91 246.62 1165.08 248.73L1165.43 248.73Q1165.78 245.57 1166.40 242.82Q1167.01 240.07 1167.95 237.38L1180.05 200.59L1199.18 200.59L1171.51 274.35Q1169 281.13 1164.96 285.67Q1160.93 290.20 1155.69 292.48Q1150.46 294.76 1144.20 294.76Q1141.16 294.76 1138.94 294.44Q1136.71 294.12 1135.13 293.77L1135.13 279.61Q1136.36 279.91 1138.23 280.14Q1140.11 280.37 1142.15 280.37Q1145.90 280.37 1148.59 278.79Q1151.28 277.21 1153.09 274.55Q1154.90 271.89 1155.96 268.73M1312.01 222.41Q1312.01 236.86 1306.48 246.54Q1300.95 256.22 1290.48 261.10Q1280.01 265.98 1265.27 265.98L1241.06 265.98L1241.06 180.47L1267.91 180.47Q1281.36 180.47 1291.24 185.24Q1301.13 190.01 1306.57 199.33Q1312.01 208.66 1312.01 222.41M1293.17 222.88Q1293.17 213.40 1290.40 207.29Q1287.62 201.18 1282.21 198.25Q1276.80 195.33 1268.84 195.33L1259.19 195.33L1259.19 251.01L1266.97 251.01Q1280.25 251.01 1286.71 243.93Q1293.17 236.86 1293.17 222.88M1355.12 199.25Q1368.28 199.25 1375.30 204.98Q1382.31 210.71 1382.31 222.41L1382.31 265.98L1369.86 265.98L1366.40 257.09L1365.94 257.09Q1363.13 260.60 1360.20 262.83Q1357.28 265.05 1353.48 266.10Q1349.68 267.15 1344.24 267.15Q1338.45 267.15 1333.85 264.93Q1329.26 262.71 1326.63 258.12Q1324 253.53 1324 246.45Q1324 236.04 1331.31 231.10Q1338.62 226.15 1353.24 225.63L1364.59 225.28L1364.59 222.41Q1364.59 217.26 1361.90 214.86Q1359.21 212.47 1354.41 212.47Q1349.68 212.47 1345.11 213.81Q1340.55 215.16 1335.99 217.20L1330.08 205.15Q1335.29 202.41 1341.75 200.83Q1348.21 199.25 1355.12 199.25M1364.59 241.07L1364.59 235.69L1357.69 235.92Q1349.03 236.15 1345.67 239.02Q1342.31 241.89 1342.31 246.57Q1342.31 250.66 1344.70 252.39Q1347.10 254.11 1350.96 254.11Q1356.70 254.11 1360.64 250.72Q1364.59 247.33 1364.59 241.07M1437.18 199.36Q1438.52 199.36 1440.31 199.51Q1442.09 199.66 1443.20 199.89L1441.86 216.62Q1440.98 216.33 1439.37 216.18Q1437.76 216.03 1436.59 216.03Q1433.14 216.03 1429.90 216.91Q1426.65 217.79 1424.08 219.75Q1421.50 221.71 1420.01 224.90Q1418.52 228.08 1418.52 232.70L1418.52 265.98L1400.68 265.98L1400.68 200.59L1414.19 200.59L1416.82 211.59L1417.70 211.59Q1419.63 208.25 1422.53 205.48Q1425.42 202.70 1429.14 201.03Q1432.85 199.36 1437.18 199.36M1455.08 174.97L1472.92 174.97L1472.92 215.68Q1472.92 219.37 1472.62 223.05Q1472.33 226.74 1471.98 230.42L1472.21 230.42Q1474.03 227.85 1475.93 225.33Q1477.83 222.82 1479.99 220.48L1498.30 200.59L1518.42 200.59L1492.45 228.96L1520 265.98L1499.41 265.98L1480.58 239.49L1472.92 245.63L1472.92 265.98L1455.08 265.98" fill="#161616"/>
  <path d="M469.89 348.28L474.48 348.28Q476.13 348.28 477.40 347.84Q478.67 347.40 479.54 346.61Q480.41 345.82 480.85 344.72Q481.29 343.62 481.29 342.31Q481.29 339.57 479.60 338.03Q477.91 336.50 474.48 336.50L469.89 336.50L469.89 348.28M466.03 333.44L474.48 333.44Q477.19 333.44 479.20 334.07Q481.21 334.70 482.52 335.86Q483.84 337.02 484.49 338.65Q485.14 340.29 485.14 342.31Q485.14 344.30 484.44 345.96Q483.74 347.62 482.39 348.81Q481.05 350.01 479.06 350.68Q477.07 351.35 474.48 351.35L469.89 351.35L469.89 362.05L466.03 362.05M489.29 332.64L492.84 332.64L492.84 362.05L489.29 362.05M509.56 357.14L509.56 352.95Q507.10 353.03 505.37 353.34Q503.65 353.65 502.56 354.14Q501.47 354.64 500.98 355.32Q500.49 356 500.49 356.84Q500.49 357.64 500.75 358.22Q501.01 358.80 501.46 359.17Q501.91 359.54 502.52 359.70Q503.13 359.87 503.83 359.87Q504.76 359.87 505.54 359.68Q506.32 359.50 507.01 359.14Q507.70 358.78 508.33 358.28Q508.96 357.78 509.56 357.14M498.71 345.82L498.08 344.68Q499.75 343.06 501.69 342.27Q503.63 341.47 505.98 341.47Q507.68 341.47 509 342.03Q510.31 342.59 511.21 343.58Q512.11 344.58 512.57 346Q513.03 347.42 513.03 349.11L513.03 362.05L511.45 362.05Q510.93 362.05 510.65 361.88Q510.37 361.71 510.21 361.21L509.81 359.30Q509.02 360.03 508.26 360.60Q507.50 361.17 506.66 361.56Q505.82 361.95 504.87 362.16Q503.93 362.37 502.77 362.37Q501.59 362.37 500.55 362.04Q499.51 361.71 498.74 361.05Q497.98 360.39 497.53 359.39Q497.08 358.38 497.08 357Q497.08 355.80 497.74 354.69Q498.39 353.59 499.87 352.73Q501.35 351.87 503.73 351.32Q506.10 350.77 509.56 350.69L509.56 349.11Q509.56 346.76 508.54 345.55Q507.52 344.34 505.56 344.34Q504.24 344.34 503.36 344.67Q502.47 345 501.82 345.41Q501.17 345.82 500.70 346.15Q500.23 346.48 499.77 346.48Q499.41 346.48 499.15 346.29Q498.89 346.10 498.71 345.82M533.07 341.83L535.89 341.83L524.61 368.02Q524.43 368.42 524.16 368.66Q523.89 368.90 523.33 368.90L520.70 368.90L524.39 360.87L516.04 341.83L519.12 341.83Q519.58 341.83 519.85 342.06Q520.12 342.29 520.22 342.57L525.63 355.30Q525.95 356.14 526.17 357.06Q526.45 356.12 526.76 355.28L532.02 342.57Q532.14 342.25 532.42 342.04Q532.71 341.83 533.07 341.83M549.44 341.83L553 341.83L553 362.05L549.44 362.05L549.44 341.83M553.76 335.48Q553.76 336 553.55 336.45Q553.34 336.90 552.99 337.24Q552.64 337.59 552.17 337.79Q551.70 337.99 551.18 337.99Q550.66 337.99 550.21 337.79Q549.76 337.59 549.42 337.24Q549.09 336.90 548.89 336.45Q548.69 336 548.69 335.48Q548.69 334.96 548.89 334.49Q549.09 334.02 549.42 333.67Q549.76 333.32 550.21 333.12Q550.66 332.92 551.18 332.92Q551.70 332.92 552.17 333.12Q552.64 333.32 552.99 333.67Q553.34 334.02 553.55 334.49Q553.76 334.96 553.76 335.48M565.04 362.37Q562.64 362.37 561.35 361.03Q560.07 359.69 560.07 357.18L560.07 344.80L557.63 344.80Q557.31 344.80 557.09 344.61Q556.87 344.42 556.87 344.02L556.87 342.61L560.19 342.19L561 335.94Q561.06 335.64 561.27 335.45Q561.48 335.26 561.82 335.26L563.62 335.26L563.62 342.23L569.47 342.23L569.47 344.80L563.62 344.80L563.62 356.94Q563.62 358.22 564.24 358.84Q564.86 359.46 565.84 359.46Q566.39 359.46 566.80 359.31Q567.21 359.16 567.51 358.98Q567.81 358.80 568.02 358.65Q568.23 358.50 568.39 358.50Q568.67 358.50 568.89 358.84L569.93 360.53Q569.01 361.39 567.71 361.88Q566.41 362.37 565.04 362.37M572.54 359.85Q572.54 359.34 572.73 358.88Q572.92 358.42 573.25 358.08Q573.58 357.74 574.04 357.54Q574.50 357.34 575.02 357.34Q575.54 357.34 576 357.54Q576.46 357.74 576.80 358.08Q577.14 358.42 577.34 358.88Q577.53 359.34 577.53 359.85Q577.53 360.39 577.34 360.84Q577.14 361.29 576.80 361.63Q576.46 361.97 576 362.16Q575.54 362.35 575.02 362.35Q574.50 362.35 574.04 362.16Q573.58 361.97 573.25 361.63Q572.92 361.29 572.73 360.84Q572.54 360.39 572.54 359.85M612.97 333.44L612.97 336.70L603.71 336.70L603.71 362.05L599.86 362.05L599.86 336.70L590.57 336.70L590.57 333.44M627.33 357.14L627.33 352.95Q624.87 353.03 623.14 353.34Q621.42 353.65 620.33 354.14Q619.24 354.64 618.75 355.32Q618.26 356 618.26 356.84Q618.26 357.64 618.52 358.22Q618.78 358.80 619.23 359.17Q619.68 359.54 620.29 359.70Q620.90 359.87 621.60 359.87Q622.54 359.87 623.31 359.68Q624.09 359.50 624.78 359.14Q625.47 358.78 626.10 358.28Q626.73 357.78 627.33 357.14M616.49 345.82L615.85 344.68Q617.52 343.06 619.46 342.27Q621.40 341.47 623.75 341.47Q625.45 341.47 626.77 342.03Q628.09 342.59 628.98 343.58Q629.88 344.58 630.34 346Q630.80 347.42 630.80 349.11L630.80 362.05L629.22 362.05Q628.70 362.05 628.42 361.88Q628.15 361.71 627.99 361.21L627.59 359.30Q626.79 360.03 626.03 360.60Q625.27 361.17 624.43 361.56Q623.59 361.95 622.65 362.16Q621.70 362.37 620.54 362.37Q619.36 362.37 618.32 362.04Q617.28 361.71 616.52 361.05Q615.75 360.39 615.30 359.39Q614.85 358.38 614.85 357Q614.85 355.80 615.51 354.69Q616.17 353.59 617.64 352.73Q619.12 351.87 621.50 351.32Q623.87 350.77 627.33 350.69L627.33 349.11Q627.33 346.76 626.31 345.55Q625.29 344.34 623.33 344.34Q622.02 344.34 621.13 344.67Q620.24 345 619.59 345.41Q618.94 345.82 618.47 346.15Q618 346.48 617.54 346.48Q617.18 346.48 616.93 346.29Q616.67 346.10 616.49 345.82M643.26 352.17Q644.34 352.17 645.16 351.87Q645.97 351.57 646.53 351.03Q647.09 350.49 647.37 349.74Q647.65 348.99 647.65 348.10Q647.65 346.24 646.52 345.14Q645.39 344.04 643.26 344.04Q641.10 344.04 639.97 345.14Q638.85 346.24 638.85 348.10Q638.85 348.99 639.14 349.74Q639.43 350.49 639.98 351.03Q640.54 351.57 641.36 351.87Q642.18 352.17 643.26 352.17M649.67 363.15Q649.67 362.41 649.25 361.95Q648.83 361.49 648.12 361.23Q647.41 360.97 646.47 360.86Q645.53 360.75 644.49 360.69Q643.44 360.63 642.36 360.57Q641.28 360.51 640.28 360.37Q639.17 360.89 638.46 361.68Q637.75 362.47 637.75 363.53Q637.75 364.21 638.10 364.80Q638.45 365.38 639.17 365.81Q639.88 366.24 640.97 366.49Q642.06 366.74 643.54 366.74Q644.98 366.74 646.11 366.48Q647.25 366.22 648.04 365.74Q648.83 365.27 649.25 364.61Q649.67 363.95 649.67 363.15M647.79 342.63L653.28 342.63L653.28 343.94Q653.28 344.60 652.44 344.78L650.15 345.08Q650.83 346.40 650.83 348Q650.83 349.47 650.26 350.68Q649.69 351.89 648.69 352.75Q647.69 353.61 646.29 354.06Q644.90 354.52 643.26 354.52Q641.84 354.52 640.58 354.18Q639.94 354.58 639.61 355.03Q639.27 355.48 639.27 355.94Q639.27 356.66 639.85 357.03Q640.44 357.40 641.40 357.56Q642.36 357.72 643.59 357.76Q644.82 357.80 646.10 357.89Q647.39 357.98 648.62 358.20Q649.85 358.42 650.81 358.92Q651.76 359.42 652.35 360.29Q652.94 361.17 652.94 362.57Q652.94 363.87 652.29 365.09Q651.64 366.30 650.43 367.25Q649.21 368.20 647.44 368.77Q645.67 369.34 643.46 369.34Q641.24 369.34 639.59 368.90Q637.93 368.46 636.83 367.72Q635.73 366.98 635.18 366.01Q634.63 365.05 634.63 363.99Q634.63 362.49 635.57 361.45Q636.51 360.41 638.15 359.79Q637.25 359.40 636.72 358.73Q636.19 358.06 636.19 356.92Q636.19 356.48 636.35 356.01Q636.51 355.54 636.84 355.07Q637.17 354.60 637.65 354.18Q638.13 353.77 638.77 353.45Q637.27 352.61 636.43 351.22Q635.59 349.83 635.59 348Q635.59 346.52 636.16 345.31Q636.73 344.10 637.75 343.25Q638.77 342.41 640.17 341.95Q641.58 341.49 643.26 341.49Q644.58 341.49 645.71 341.78Q646.85 342.07 647.79 342.63M667.40 341.83L670.95 341.83L670.95 362.05L667.40 362.05L667.40 341.83M671.71 335.48Q671.71 336 671.50 336.45Q671.29 336.90 670.94 337.24Q670.59 337.59 670.12 337.79Q669.65 337.99 669.13 337.99Q668.61 337.99 668.16 337.79Q667.72 337.59 667.38 337.24Q667.04 336.90 666.84 336.45Q666.64 336 666.64 335.48Q666.64 334.96 666.84 334.49Q667.04 334.02 667.38 333.67Q667.72 333.32 668.16 333.12Q668.61 332.92 669.13 332.92Q669.65 332.92 670.12 333.12Q670.59 333.32 670.94 333.67Q671.29 334.02 671.50 334.49Q671.71 334.96 671.71 335.48M682.99 362.37Q680.59 362.37 679.30 361.03Q678.02 359.69 678.02 357.18L678.02 344.80L675.58 344.80Q675.26 344.80 675.04 344.61Q674.82 344.42 674.82 344.02L674.82 342.61L678.14 342.19L678.96 335.94Q679.02 335.64 679.23 335.45Q679.43 335.26 679.77 335.26L681.57 335.26L681.57 342.23L687.42 342.23L687.42 344.80L681.57 344.80L681.57 356.94Q681.57 358.22 682.19 358.84Q682.81 359.46 683.79 359.46Q684.35 359.46 684.76 359.31Q685.16 359.16 685.46 358.98Q685.76 358.80 685.97 358.65Q686.18 358.50 686.34 358.50Q686.62 358.50 686.84 358.84L687.88 360.53Q686.96 361.39 685.66 361.88Q684.37 362.37 682.99 362.37M690.50 359.85Q690.50 359.34 690.68 358.88Q690.87 358.42 691.20 358.08Q691.53 357.74 691.99 357.54Q692.45 357.34 692.97 357.34Q693.49 357.34 693.95 357.54Q694.41 357.74 694.75 358.08Q695.09 358.42 695.29 358.88Q695.49 359.34 695.49 359.85Q695.49 360.39 695.29 360.84Q695.09 361.29 694.75 361.63Q694.41 361.97 693.95 362.16Q693.49 362.35 692.97 362.35Q692.45 362.35 691.99 362.16Q691.53 361.97 691.20 361.63Q690.87 361.29 690.68 360.84Q690.50 360.39 690.50 359.85M715.45 333.44L715.45 362.05L711.58 362.05L711.58 333.44M724.99 342.57L725.27 344.76Q725.93 344.02 726.67 343.42Q727.41 342.82 728.24 342.40Q729.07 341.97 730 341.74Q730.92 341.51 732 341.51Q733.66 341.51 734.93 342.06Q736.19 342.61 737.04 343.61Q737.89 344.62 738.33 346.04Q738.77 347.46 738.77 349.17L738.77 362.05L735.20 362.05L735.20 349.17Q735.20 346.88 734.15 345.61Q733.10 344.34 730.96 344.34Q729.39 344.34 728.02 345.10Q726.65 345.86 725.49 347.16L725.49 362.05L721.92 362.05L721.92 341.83L724.06 341.83Q724.81 341.83 724.99 342.57M760.63 362.37Q758.24 362.37 756.95 361.03Q755.66 359.69 755.66 357.18L755.66 344.80L753.22 344.80Q752.90 344.80 752.69 344.61Q752.47 344.42 752.47 344.02L752.47 342.61L755.78 342.19L756.60 335.94Q756.66 335.64 756.87 335.45Q757.08 335.26 757.42 335.26L759.21 335.26L759.21 342.23L765.06 342.23L765.06 344.80L759.21 344.80L759.21 356.94Q759.21 358.22 759.83 358.84Q760.45 359.46 761.43 359.46Q761.99 359.46 762.40 359.31Q762.81 359.16 763.11 358.98Q763.41 358.80 763.62 358.65Q763.83 358.50 763.99 358.50Q764.26 358.50 764.48 358.84L765.52 360.53Q764.60 361.39 763.31 361.88Q762.01 362.37 760.63 362.37M772.31 332.64L772.31 344.52Q773.61 343.14 775.19 342.33Q776.76 341.51 778.82 341.51Q780.48 341.51 781.74 342.06Q783.01 342.61 783.86 343.61Q784.71 344.62 785.15 346.04Q785.59 347.46 785.59 349.17L785.59 362.05L782.01 362.05L782.01 349.17Q782.01 346.88 780.97 345.61Q779.92 344.34 777.78 344.34Q776.20 344.34 774.84 345.10Q773.47 345.86 772.31 347.16L772.31 362.05L768.74 362.05L768.74 332.64M793.49 349.73L804.55 349.73Q804.55 348.49 804.20 347.47Q803.85 346.44 803.19 345.69Q802.52 344.94 801.56 344.53Q800.60 344.12 799.38 344.12Q796.83 344.12 795.34 345.61Q793.85 347.10 793.49 349.73M806.43 357.92L807.43 359.22Q806.77 360.01 805.85 360.60Q804.93 361.19 803.88 361.57Q802.84 361.95 801.72 362.14Q800.60 362.33 799.50 362.33Q797.41 362.33 795.64 361.62Q793.87 360.91 792.58 359.55Q791.30 358.18 790.58 356.16Q789.86 354.14 789.86 351.53Q789.86 349.41 790.51 347.58Q791.16 345.74 792.37 344.39Q793.59 343.04 795.35 342.28Q797.11 341.51 799.30 341.51Q801.12 341.51 802.67 342.12Q804.21 342.72 805.34 343.87Q806.47 345.02 807.11 346.71Q807.75 348.39 807.75 350.55Q807.75 351.39 807.57 351.67Q807.39 351.95 806.89 351.95L793.37 351.95Q793.43 353.87 793.90 355.28Q794.37 356.70 795.21 357.65Q796.05 358.60 797.21 359.07Q798.36 359.54 799.80 359.54Q801.14 359.54 802.11 359.23Q803.08 358.92 803.77 358.56Q804.47 358.20 804.94 357.89Q805.41 357.58 805.75 357.58Q806.19 357.58 806.43 357.92M835.50 356.40L835.50 346.64Q834.50 345.30 833.34 344.77Q832.18 344.24 830.75 344.24Q827.93 344.24 826.41 346.26Q824.90 348.28 824.90 352.01Q824.90 353.99 825.24 355.39Q825.58 356.80 826.23 357.71Q826.89 358.62 827.85 359.04Q828.81 359.46 830.03 359.46Q831.79 359.46 833.09 358.66Q834.40 357.86 835.50 356.40M835.50 332.64L839.05 332.64L839.05 362.05L836.94 362.05Q836.18 362.05 835.98 361.31L835.66 358.86Q834.36 360.41 832.70 361.37Q831.05 362.33 828.87 362.33Q827.13 362.33 825.72 361.66Q824.30 360.99 823.30 359.69Q822.30 358.40 821.76 356.46Q821.22 354.52 821.22 352.01Q821.22 349.77 821.82 347.85Q822.42 345.92 823.54 344.50Q824.66 343.08 826.28 342.28Q827.91 341.47 829.95 341.47Q831.81 341.47 833.13 342.10Q834.46 342.72 835.50 343.84M855.64 357.14L855.64 352.95Q853.19 353.03 851.46 353.34Q849.73 353.65 848.65 354.14Q847.56 354.64 847.07 355.32Q846.58 356 846.58 356.84Q846.58 357.64 846.84 358.22Q847.10 358.80 847.55 359.17Q848 359.54 848.61 359.70Q849.21 359.87 849.91 359.87Q850.85 359.87 851.63 359.68Q852.41 359.50 853.10 359.14Q853.79 358.78 854.42 358.28Q855.04 357.78 855.64 357.14M844.80 345.82L844.16 344.68Q845.84 343.06 847.78 342.27Q849.71 341.47 852.07 341.47Q853.77 341.47 855.08 342.03Q856.40 342.59 857.30 343.58Q858.20 344.58 858.66 346Q859.12 347.42 859.12 349.11L859.12 362.05L857.54 362.05Q857.02 362.05 856.74 361.88Q856.46 361.71 856.30 361.21L855.90 359.30Q855.10 360.03 854.35 360.60Q853.59 361.17 852.75 361.56Q851.91 361.95 850.96 362.16Q850.01 362.37 848.85 362.37Q847.68 362.37 846.64 362.04Q845.60 361.71 844.83 361.05Q844.06 360.39 843.61 359.39Q843.17 358.38 843.17 357Q843.17 355.80 843.82 354.69Q844.48 353.59 845.96 352.73Q847.44 351.87 849.81 351.32Q852.19 350.77 855.64 350.69L855.64 349.11Q855.64 346.76 854.62 345.55Q853.61 344.34 851.65 344.34Q850.33 344.34 849.44 344.67Q848.56 345 847.91 345.41Q847.26 345.82 846.79 346.15Q846.32 346.48 845.86 346.48Q845.50 346.48 845.24 346.29Q844.98 346.10 844.80 345.82M867.66 342.80L867.90 345.88Q868.86 343.80 870.26 342.64Q871.65 341.47 873.67 341.47Q874.31 341.47 874.90 341.61Q875.49 341.75 875.95 342.05L875.69 344.70Q875.57 345.20 875.09 345.20Q874.81 345.20 874.27 345.08Q873.73 344.96 873.05 344.96Q872.09 344.96 871.35 345.24Q870.60 345.52 870.01 346.07Q869.42 346.62 868.95 347.43Q868.48 348.24 868.10 349.27L868.10 362.05L864.53 362.05L864.53 341.83L866.56 341.83Q867.14 341.83 867.36 342.05Q867.58 342.27 867.66 342.80M879.06 332.64L882.64 332.64L882.64 349.95L883.55 349.95Q883.95 349.95 884.22 349.84Q884.49 349.73 884.79 349.39L891.18 342.55Q891.46 342.21 891.77 342.02Q892.08 341.83 892.60 341.83L895.81 341.83L888.37 349.75Q887.83 350.43 887.21 350.81Q887.57 351.05 887.86 351.36Q888.15 351.67 888.41 352.07L896.31 362.05L893.14 362.05Q892.68 362.05 892.35 361.90Q892.02 361.75 891.78 361.35L885.13 353.07Q884.83 352.65 884.54 352.52Q884.25 352.39 883.65 352.39L882.64 352.39L882.64 362.05L879.06 362.05M898.75 359.85Q898.75 359.34 898.94 358.88Q899.13 358.42 899.46 358.08Q899.78 357.74 900.24 357.54Q900.70 357.34 901.22 357.34Q901.74 357.34 902.20 357.54Q902.66 357.74 903 358.08Q903.34 358.42 903.54 358.88Q903.74 359.34 903.74 359.85Q903.74 360.39 903.54 360.84Q903.34 361.29 903 361.63Q902.66 361.97 902.20 362.16Q901.74 362.35 901.22 362.35Q900.70 362.35 900.24 362.16Q899.78 361.97 899.46 361.63Q899.13 361.29 898.94 360.84Q898.75 360.39 898.75 359.85" fill="#5a5d5e"/>
</svg>
